<?xml version="1.0" encoding="utf-8"?>
<svg version="1.1" xmlns="http://www.w3.org/2000/svg" xmlns:xlink="http://www.w3.org/1999/xlink" height="16" width="16">
  <defs>
    <rect id="rect-1" opacity="1" x="0" y="0" width="16" height="16"/>
    <path id="path-2" opacity="1" fill-rule="evenodd" d="M12.651162929832935,2.97674423456192 L14.241015262901783,2.97674423456192 C15.211839504539967,2.97674423456192 15.999999828636646,3.768287479877472 15.996617145836353,4.739111959934235 L15.996617145836353,13.865538656711578 C15.996617145836353,14.836363852024078 15.208456821739674,15.627906858921051 14.23763258010149,15.627906858921051 L1.789429135620594,15.627906858921051 C0.8186046555638313,15.627906858921051 0.03044397383928299,14.836363852024078 0.03044397383928299,13.865538656711578 L0.03044397383928299,3.3860464692115784 C0.03044397383928299,3.1999998688697815 0.15560255199670792,3.0443974137306213 0.32473573833703995,2.997040092945099 L10.411839313805103,0.07103593647480011 C10.946300335228443,-0.08456660062074661 11.507822819054127,0.02029598318040371 11.95433408766985,0.35517972707748413 C12.400845356285572,0.6900634169578552 12.651162929832935,1.2042284607887268 12.651162929832935,1.7623680233955383 L12.651162929832935,2.97674423456192 L11.467229671776295,1.004651129245758 C11.227061100304127,0.8253700137138367 10.926004238426685,0.7678647041320801 10.6384771540761,0.8524312973022461 L3.2980972006917,2.97674423456192 L11.839322872459888,2.97674423456192 L11.839322872459888,1.7623677849769592 C11.839322872459888,1.4613109230995178 11.707399196922779,1.183932363986969 11.467229671776295,1.004651129245758 L14.241014309227467,14.81606775522232 L1.792811818420887,14.81606775522232 C1.271881528198719,14.81606775522232 0.8456659987568855,14.386469900608063 0.8456659987568855,13.865539610385895 L0.8456659987568855,3.7885835766792297 L14.241014309227467,3.7885835766792297 C14.761944599449635,3.7885835766792297 15.188160724937916,4.218181669712067 15.188160724937916,4.739111959934235 L15.188160724937916,6.3932347893714905 L11.48414308577776,6.3932347893714905 C10.513318844139576,6.3932347893714905 9.742071934044361,7.188160955905914 9.742071934044361,8.158985197544098 L9.742071934044361,10.449049055576324 C9.742071934044361,11.419873297214508 10.513318844139576,12.214798986911774 11.48414308577776,12.214798986911774 L15.188160724937916,12.214798986911774 L15.188160724937916,13.868922293186188 C15.188160724937916,14.386469900608063 14.761944599449635,14.81606775522232 14.241014309227467,14.81606775522232 L15.188160724937916,11.39957720041275 L15.188160724937916,7.201691210269928 L11.484144039452076,7.201691210269928 C10.963213749229908,7.201691210269928 10.553911037743092,7.634672224521637 10.553911037743092,8.155602514743805 L10.553911037743092,10.445665419101715 C10.553911037743092,10.969978392124176 10.963213749229908,11.39957720041275 11.484144039452076,11.39957720041275 L15.188160724937916,11.39957720041275 L12.651162929832935,2.97674423456192Z"/>
  </defs>
  <g opacity="1">
    <g opacity="1">
      <g opacity="1">
        <use xlink:href="#path-2" fill="rgb(11,12,14)" fill-opacity="1"/>
      </g>
    </g>
  </g>
</svg>