<?xml version="1.0" encoding="utf-8"?>
<svg version="1.1" xmlns="http://www.w3.org/2000/svg" xmlns:xlink="http://www.w3.org/1999/xlink" height="32" width="32">
  <defs>
    <rect id="rect-1" opacity="1" x="0" y="0" width="16" height="16"/>
    <path id="path-2" opacity="1" fill-rule="evenodd" d="M4,0 L28,0 C30.207660097976,0 32,1.792339902024 32,4 L32,28 C32,30.207660097976 30.207660097976,32 28,32 L4,32 C1.7923399020240005,32 4.440892098500626e-16,30.207660097976 0,28 L0,4 C0,1.7923399020240005 1.7923399020239992,4.440892098500626e-16 4,0Z"/>
    <path id="path-3" opacity="1" fill-rule="evenodd" d="M20.65116310119629,10.976743698120117 L22.241016387939453,10.976743698120117 C23.21183967590332,10.976743698120117 24,11.768287658691406 23.99661636352539,12.73911190032959 L23.99661636352539,21.86553955078125 C23.99661636352539,22.83636474609375 23.208457946777344,23.627906799316406 22.237632751464844,23.627906799316406 L9.789429664611816,23.627906799316406 C8.818604469299316,23.627906799316406 8.030444145202637,22.83636474609375 8.030444145202637,21.86553955078125 L8.030444145202637,11.386046409606934 C8.030444145202637,11.199999809265137 8.15560245513916,11.044397354125977 8.324735641479492,10.997039794921875 L18.41183853149414,8.071035385131836 C18.946300506591797,7.915433406829834 19.507823944091797,8.020296096801758 19.954334259033203,8.355179786682129 C20.40084457397461,8.6900634765625 20.65116310119629,9.204228401184082 20.65116310119629,9.762368202209473 L20.65116310119629,10.976743698120117 L19.46723175048828,9.004651069641113 C19.227062225341797,8.825369834899902 18.92600440979004,8.767864227294922 18.638477325439453,8.852431297302246 L11.298097610473633,10.976743698120117 L19.839324951171875,10.976743698120117 L19.839324951171875,9.762367248535156 C19.839324951171875,9.461310386657715 19.707401275634766,9.183932304382324 19.46723175048828,9.004651069641113 L22.24101448059082,22.81606674194336 L9.792811393737793,22.81606674194336 C9.271881103515625,22.81606674194336 8.84566593170166,22.386470794677734 8.84566593170166,21.86553955078125 L8.84566593170166,11.788583755493164 L22.24101448059082,11.788583755493164 C22.761943817138672,11.788583755493164 23.188159942626953,12.218181610107422 23.188159942626953,12.73911190032959 L23.188159942626953,14.393235206604004 L19.484142303466797,14.393235206604004 C18.51331901550293,14.393235206604004 17.74207305908203,15.18816089630127 17.74207305908203,16.158985137939453 L17.74207305908203,18.44904899597168 C17.74207305908203,19.419872283935547 18.51331901550293,20.214797973632812 19.484142303466797,20.214797973632812 L23.188159942626953,20.214797973632812 L23.188159942626953,21.86892318725586 C23.188159942626953,22.386470794677734 22.761943817138672,22.81606674194336 22.24101448059082,22.81606674194336 L23.188159942626953,19.399578094482422 L23.188159942626953,15.201691627502441 L19.48414421081543,15.201691627502441 C18.963212966918945,15.201691627502441 18.553911209106445,15.634672164916992 18.553911209106445,16.155603408813477 L18.553911209106445,18.445667266845703 C18.553911209106445,18.96997833251953 18.963212966918945,19.399578094482422 19.48414421081543,19.399578094482422 L23.188159942626953,19.399578094482422 L20.65116310119629,10.976743698120117Z"/>
  </defs>
  <g transform="translate(8, 8)" opacity="1">
    <g opacity="1">
      <g opacity="0.6973586309523809">
        <use xlink:href="#path-2" fill="rgb(241,234,217)" fill-opacity="1"/>
      </g>
      <g opacity="1">
        <use xlink:href="#path-3" fill="rgb(204,175,116)" fill-opacity="1"/>
      </g>
    </g>
  </g>
</svg>