<?xml version="1.0" encoding="utf-8"?>
<svg version="1.1" xmlns="http://www.w3.org/2000/svg" xmlns:xlink="http://www.w3.org/1999/xlink" height="16" width="16">
  <defs>
    <rect id="rect-1" opacity="1" x="0" y="0" width="16" height="16"/>
    <path id="path-2" opacity="1" fill-rule="evenodd" d="M12.636363983154297,0.10774410516023636 L3.5858585834503174,0.10774410516023636 C2.1577281951904297,0.10774410516023636 1,1.2654724195599556 1,2.6936026886105537 L1,12.767677195370197 C1,14.195807345211506 2.1577281951904297,15.353535540401936 3.5858585834503174,15.353535540401936 L12.636363983154297,15.353535540401936 C14.064494132995605,15.353535540401936 15.222222328186035,14.195807345211506 15.222222328186035,12.767677195370197 L15.222222328186035,2.6936026886105537 C15.222222328186035,1.2654724195599556 14.064494132995605,0.10774410516023636 12.636363983154297,0.10774410516023636 L12.636363983154297,14.49158275872469 C13.58845043182373,14.49158275872469 14.360269546508789,13.719763644039631 14.360269546508789,12.767676241695881 L14.360269546508789,2.6936024501919746 C14.360269546508789,1.7415158823132515 13.58845043182373,0.969697006046772 12.636363983154297,0.969697006046772 L10.696969985961914,0.969697006046772 L10.696969985961914,1.831649787724018 C10.696969985961914,2.545714743435383 10.1181058883667,3.124579079449177 9.404040336608887,3.124579079449177 L6.81818151473999,3.124579079449177 C6.104116439819336,3.124579079449177 5.525252342224121,2.545714743435383 5.525252342224121,1.831649787724018 L5.525252342224121,0.969697006046772 L3.5858585834503174,0.969697006046772 C2.6337718963623047,0.969697006046772 1.8619529008865356,1.7415158823132515 1.8619529008865356,2.6936024501919746 L1.8619529008865356,12.767676241695881 C1.8619529008865356,13.719763644039631 2.6337718963623047,14.49158275872469 3.5858585834503174,14.49158275872469 L12.636363983154297,14.49158275872469 L6.387205600738525,0.969697006046772 L9.835017204284668,0.969697006046772 L9.835017204284668,1.831649787724018 C9.835017204284668,2.0696716383099556 9.642062187194824,2.2626260593533516 9.404040336608887,2.2626260593533516 L6.818181991577148,2.2626260593533516 C6.580160140991211,2.2626260593533516 6.387205600738525,2.0696716383099556 6.387205600738525,1.831649787724018 L6.387205600738525,0.969697006046772 L12.636363983154297,0.10774410516023636Z"/>
    <path id="path-3" opacity="1" fill-rule="evenodd" d="M12.196767676767458,6.518518518518127 L3.9845117845117284,6.518518518518127 C3.7464900741469425,6.518518518518127 3.553535353535298,6.711473239129772 3.553535353535298,6.949494949494558 C3.553535353535298,7.1875166598593445 3.7464900741469425,7.380471380470989 3.9845117845117284,7.380471380470989 L12.196767676767458,7.380471380470989 C12.434789387132241,7.380471380470989 12.627744107744196,7.1875166598593445 12.627744107744196,6.949494949494558 C12.627744107744196,6.711473239129772 12.434789387132241,6.518518518518127 12.196767676767458,6.518518518518127Z"/>
    <path id="path-4" opacity="1" fill-rule="evenodd" d="M12.19676767676768,10.07407407407368 L3.9845117845117244,10.07407407407368 C3.746490074146938,10.07407407407368 3.5535353535352936,10.267028794685324 3.5535353535352936,10.50505050505011 C3.5535353535352936,10.743072215414898 3.746490074146938,10.936026936026542 3.9845117845117244,10.936026936026542 L12.19676767676768,10.936026936026542 C12.434789387132467,10.936026936026542 12.6277441077442,10.743072215414898 12.6277441077442,10.50505050505011 C12.6277441077442,10.267028794685324 12.434789387132467,10.07407407407368 12.19676767676768,10.07407407407368Z"/>
  </defs>
  <g opacity="1">
    <g opacity="1">
      <g opacity="1">
        <use xlink:href="#path-2" fill="rgb(11,12,14)" fill-opacity="1"/>
      </g>
      <g opacity="1">
        <use xlink:href="#path-3" fill="rgb(11,12,14)" fill-opacity="1"/>
      </g>
      <g opacity="1">
        <use xlink:href="#path-4" fill="rgb(11,12,14)" fill-opacity="1"/>
      </g>
    </g>
  </g>
</svg>