<?xml version="1.0" encoding="utf-8"?>
<svg version="1.1" xmlns="http://www.w3.org/2000/svg" xmlns:xlink="http://www.w3.org/1999/xlink" height="32" width="32">
  <defs>
    <rect id="rect-1" opacity="1" x="0" y="0" width="16" height="16"/>
    <path id="path-2" opacity="1" fill-rule="evenodd" d="M4,0 L28,0 C30.207660097976,0 32,1.792339902024 32,4 L32,28 C32,30.207660097976 30.207660097976,32 28,32 L4,32 C1.7923399020240005,32 4.440892098500626e-16,30.207660097976 0,28 L0,4 C0,1.7923399020240005 1.7923399020239992,4.440892098500626e-16 4,0Z"/>
    <path id="path-3" opacity="1" fill-rule="evenodd" d="M20.636363983154297,8.107744216918945 L11.585858345031738,8.107744216918945 C10.15772819519043,8.107744216918945 9,9.265472412109375 9,10.693602561950684 L9,20.767677307128906 C9,22.19580841064453 10.15772819519043,23.353534698486328 11.585858345031738,23.353534698486328 L20.636363983154297,23.353534698486328 C22.064495086669922,23.353534698486328 23.22222137451172,22.19580841064453 23.22222137451172,20.767677307128906 L23.22222137451172,10.693602561950684 C23.22222137451172,9.265472412109375 22.064495086669922,8.107744216918945 20.636363983154297,8.107744216918945 L20.636363983154297,22.4915828704834 C21.588451385498047,22.4915828704834 22.36026954650879,21.719764709472656 22.36026954650879,20.767677307128906 L22.36026954650879,10.693602561950684 C22.36026954650879,9.74151611328125 21.588451385498047,8.969696998596191 20.636363983154297,8.969696998596191 L18.696969985961914,8.969696998596191 L18.696969985961914,9.831649780273438 C18.696969985961914,10.54571533203125 18.118106842041016,11.124579429626465 17.404041290283203,11.124579429626465 L14.818181991577148,11.124579429626465 C14.104116439819336,11.124579429626465 13.525252342224121,10.54571533203125 13.525252342224121,9.831649780273438 L13.525252342224121,8.969696998596191 L11.585858345031738,8.969696998596191 C10.633771896362305,8.969696998596191 9.861952781677246,9.74151611328125 9.861952781677246,10.693602561950684 L9.861952781677246,20.767677307128906 C9.861952781677246,21.719764709472656 10.633771896362305,22.4915828704834 11.585858345031738,22.4915828704834 L20.636363983154297,22.4915828704834 L14.387205123901367,8.969696998596191 L17.83501625061035,8.969696998596191 L17.83501625061035,9.831649780273438 C17.83501625061035,10.069671630859375 17.642061233520508,10.262626647949219 17.40403938293457,10.262626647949219 L14.818181991577148,10.262626647949219 C14.580160140991211,10.262626647949219 14.387205123901367,10.069671630859375 14.387205123901367,9.831649780273438 L14.387205123901367,8.969696998596191 L20.636363983154297,8.107744216918945Z"/>
    <path id="path-4" opacity="1" fill-rule="evenodd" d="M20.19676767676754,14.51851851851825 L11.984511784511811,14.51851851851825 C11.746490074147024,14.51851851851825 11.55353535353538,14.711473239129896 11.55353535353538,14.949494949494682 C11.55353535353538,15.187516659859467 11.746490074147024,15.380471380471112 11.984511784511811,15.380471380471112 L20.19676767676754,15.380471380471112 C20.434789387132327,15.380471380471112 20.627744107744277,15.187516659859469 20.627744107744277,14.949494949494682 C20.627744107744277,14.711473239129896 20.434789387132327,14.51851851851825 20.19676767676754,14.51851851851825Z"/>
    <path id="path-5" opacity="1" fill-rule="evenodd" d="M20.196767676767767,18.07407407407391 L11.984511784511811,18.07407407407391 C11.746490074147026,18.07407407407391 11.55353535353538,18.26702879468555 11.55353535353538,18.50505050505034 C11.55353535353538,18.74307221541513 11.746490074147026,18.93602693602677 11.984511784511811,18.93602693602677 L20.196767676767767,18.93602693602677 C20.434789387132554,18.93602693602677 20.627744107744284,18.74307221541513 20.627744107744284,18.50505050505034 C20.627744107744284,18.26702879468555 20.434789387132554,18.07407407407391 20.196767676767767,18.07407407407391Z"/>
  </defs>
  <g transform="translate(8, 8)" opacity="1">
    <g opacity="1">
      <g opacity="0.6973586309523809">
        <use xlink:href="#path-2" fill="rgb(241,234,217)" fill-opacity="1"/>
      </g>
      <g opacity="1">
        <use xlink:href="#path-3" fill="rgb(204,175,116)" fill-opacity="1"/>
      </g>
      <g opacity="1">
        <use xlink:href="#path-4" fill="rgb(204,175,116)" fill-opacity="1"/>
      </g>
      <g opacity="1">
        <use xlink:href="#path-5" fill="rgb(204,175,116)" fill-opacity="1"/>
      </g>
    </g>
  </g>
</svg>