<?xml version="1.0" encoding="utf-8"?>
<svg version="1.1" xmlns="http://www.w3.org/2000/svg" xmlns:xlink="http://www.w3.org/1999/xlink" height="16" width="16">
  <defs>
    <rect id="rect-1" opacity="1" x="0" y="0" width="16" height="16"/>
    <path id="path-2" opacity="1" fill-rule="evenodd" d="M0.380952388048172,6.687619209289551 L6.306666851043701,6.687619209289551 C6.51706075668335,6.687619209289551 6.687619209289551,6.51706075668335 6.687619209289551,6.306666851043701 L6.687619209289551,0.380952388048172 C6.687619209289551,0.17055818438529968 6.51706075668335,0 6.306666851043701,0 L0.380952388048172,0 C0.17055818438529968,0 0,0.17055818438529968 0,0.380952388048172 L0,6.306666851043701 C0,6.51706075668335 0.17055818438529968,6.687619209289551 0.380952388048172,6.687619209289551 L5.925714015960693,5.925714015960693 L0.761904776096344,5.925714015960693 L0.761904776096344,0.761904776096344 L5.925714015960693,0.761904776096344 L5.925714015960693,5.925714015960693 L0.380952388048172,6.687619209289551Z"/>
    <path id="path-3" opacity="1" fill-rule="evenodd" d="M9.693333625793457,6.687619209289551 L15.619047164916992,6.687619209289551 C15.82944107055664,6.687619209289551 16,6.51706075668335 16,6.306666851043701 L16,0.380952388048172 C16,0.17055818438529968 15.82944107055664,0 15.619047164916992,0 L9.693333625793457,0 C9.482938766479492,0 9.31238079071045,0.17055818438529968 9.31238079071045,0.380952388048172 L9.31238079071045,6.306666851043701 C9.31238079071045,6.51706075668335 9.482938766479492,6.687619209289551 9.693333625793457,6.687619209289551 L15.238094329833984,5.925714015960693 L10.074285507202148,5.925714015960693 L10.074285507202148,0.761904776096344 L15.238094329833984,0.761904776096344 L15.238094329833984,5.925714015960693 L9.693333625793457,6.687619209289551Z"/>
    <path id="path-4" opacity="1" fill-rule="evenodd" d="M9.693333625793457,16 L15.619047164916992,16 C15.82944107055664,16 16,15.82944107055664 16,15.619047164916992 L16,9.693333625793457 C16,9.482938766479492 15.82944107055664,9.31238079071045 15.619047164916992,9.31238079071045 L9.693333625793457,9.31238079071045 C9.482938766479492,9.31238079071045 9.31238079071045,9.482938766479492 9.31238079071045,9.693333625793457 L9.31238079071045,15.619047164916992 C9.31238079071045,15.82944107055664 9.482938766479492,16 9.693333625793457,16 L15.238094329833984,15.238094329833984 L10.074285507202148,15.238094329833984 L10.074285507202148,10.074285507202148 L15.238094329833984,10.074285507202148 L15.238094329833984,15.238094329833984 L9.693333625793457,16Z"/>
    <path id="path-5" opacity="1" fill-rule="evenodd" d="M0.380952388048172,16 L6.306666851043701,16 C6.51706075668335,16 6.687619209289551,15.82944107055664 6.687619209289551,15.619047164916992 L6.687619209289551,9.693333625793457 C6.687619209289551,9.482938766479492 6.51706075668335,9.31238079071045 6.306666851043701,9.31238079071045 L0.380952388048172,9.31238079071045 C0.17055818438529968,9.31238079071045 0,9.482938766479492 0,9.693333625793457 L0,15.619047164916992 C0,15.82944107055664 0.17055818438529968,16 0.380952388048172,16 L5.925714015960693,15.238094329833984 L0.761904776096344,15.238094329833984 L0.761904776096344,10.074285507202148 L5.925714015960693,10.074285507202148 L5.925714015960693,15.238094329833984 L0.380952388048172,16Z"/>
  </defs>
  <g opacity="1">
    <g opacity="1">
      <g opacity="1">
        <use xlink:href="#path-2" fill="rgb(11,12,14)" fill-opacity="1"/>
      </g>
      <g opacity="1">
        <use xlink:href="#path-3" fill="rgb(11,12,14)" fill-opacity="1"/>
      </g>
      <g opacity="1">
        <use xlink:href="#path-4" fill="rgb(11,12,14)" fill-opacity="1"/>
      </g>
      <g opacity="1">
        <use xlink:href="#path-5" fill="rgb(11,12,14)" fill-opacity="1"/>
      </g>
    </g>
  </g>
</svg>