<?xml version="1.0" encoding="utf-8"?>
<svg version="1.1" xmlns="http://www.w3.org/2000/svg" xmlns:xlink="http://www.w3.org/1999/xlink" height="32" width="32">
  <defs>
    <rect id="rect-1" opacity="1" x="0" y="0" width="16" height="16"/>
    <path id="path-2" opacity="1" fill-rule="evenodd" d="M4,0 L28,0 C30.207660097976,0 32,1.792339902024 32,4 L32,28 C32,30.207660097976 30.207660097976,32 28,32 L4,32 C1.7923399020240005,32 4.440892098500626e-16,30.207660097976 0,28 L0,4 C0,1.7923399020240005 1.7923399020239992,4.440892098500626e-16 4,0Z"/>
    <path id="path-3" opacity="1" fill-rule="evenodd" d="M8.380952835083008,14.68761920928955 L14.30666732788086,14.68761920928955 C14.517061233520508,14.68761920928955 14.68761920928955,14.517061233520508 14.68761920928955,14.30666732788086 L14.68761920928955,8.380952835083008 C14.68761920928955,8.170557975769043 14.517061233520508,8 14.30666732788086,8 L8.380952835083008,8 C8.170557975769043,8 8,8.170557975769043 8,8.380952835083008 L8,14.30666732788086 C8,14.517061233520508 8.170557975769043,14.68761920928955 8.380952835083008,14.68761920928955 L13.925714492797852,13.925714492797852 L8.7619047164917,13.925714492797852 L8.7619047164917,8.7619047164917 L13.925714492797852,8.7619047164917 L13.925714492797852,13.925714492797852 L8.380952835083008,14.68761920928955Z"/>
    <path id="path-4" opacity="1" fill-rule="evenodd" d="M17.693334579467773,14.68761920928955 L23.619049072265625,14.68761920928955 C23.829442977905273,14.68761920928955 24,14.517061233520508 24,14.30666732788086 L24,8.380952835083008 C24,8.170557975769043 23.829442977905273,8 23.619049072265625,8 L17.693334579467773,8 C17.482940673828125,8 17.312381744384766,8.170557975769043 17.312381744384766,8.380952835083008 L17.312381744384766,14.30666732788086 C17.312381744384766,14.517061233520508 17.482940673828125,14.68761920928955 17.693334579467773,14.68761920928955 L23.238094329833984,13.925714492797852 L18.07428550720215,13.925714492797852 L18.07428550720215,8.7619047164917 L23.238094329833984,8.7619047164917 L23.238094329833984,13.925714492797852 L17.693334579467773,14.68761920928955Z"/>
    <path id="path-5" opacity="1" fill-rule="evenodd" d="M17.693334579467773,24 L23.619049072265625,24 C23.829442977905273,24 24,23.829442977905273 24,23.619049072265625 L24,17.693334579467773 C24,17.482940673828125 23.829442977905273,17.312381744384766 23.619049072265625,17.312381744384766 L17.693334579467773,17.312381744384766 C17.482940673828125,17.312381744384766 17.312381744384766,17.482940673828125 17.312381744384766,17.693334579467773 L17.312381744384766,23.619049072265625 C17.312381744384766,23.829442977905273 17.482940673828125,24 17.693334579467773,24 L23.238094329833984,23.238094329833984 L18.07428550720215,23.238094329833984 L18.07428550720215,18.07428550720215 L23.238094329833984,18.07428550720215 L23.238094329833984,23.238094329833984 L17.693334579467773,24Z"/>
    <path id="path-6" opacity="1" fill-rule="evenodd" d="M8.380952835083008,24 L14.30666732788086,24 C14.517061233520508,24 14.68761920928955,23.829442977905273 14.68761920928955,23.619049072265625 L14.68761920928955,17.693334579467773 C14.68761920928955,17.482940673828125 14.517061233520508,17.312381744384766 14.30666732788086,17.312381744384766 L8.380952835083008,17.312381744384766 C8.170557975769043,17.312381744384766 8,17.482940673828125 8,17.693334579467773 L8,23.619049072265625 C8,23.829442977905273 8.170557975769043,24 8.380952835083008,24 L13.925714492797852,23.238094329833984 L8.7619047164917,23.238094329833984 L8.7619047164917,18.07428550720215 L13.925714492797852,18.07428550720215 L13.925714492797852,23.238094329833984 L8.380952835083008,24Z"/>
  </defs>
  <g transform="translate(8, 8)" opacity="1">
    <g opacity="1">
      <g opacity="0.6973586309523809">
        <use xlink:href="#path-2" fill="rgb(241,234,217)" fill-opacity="1"/>
      </g>
      <g opacity="1">
        <use xlink:href="#path-3" fill="rgb(204,175,116)" fill-opacity="1"/>
      </g>
      <g opacity="1">
        <use xlink:href="#path-4" fill="rgb(204,175,116)" fill-opacity="1"/>
      </g>
      <g opacity="1">
        <use xlink:href="#path-5" fill="rgb(204,175,116)" fill-opacity="1"/>
      </g>
      <g opacity="1">
        <use xlink:href="#path-6" fill="rgb(204,175,116)" fill-opacity="1"/>
      </g>
    </g>
  </g>
</svg>