<?xml version="1.0" encoding="utf-8"?>
<svg version="1.1" xmlns="http://www.w3.org/2000/svg" xmlns:xlink="http://www.w3.org/1999/xlink" height="16" width="56">
  <defs>
    <path id="path-1" opacity="1" fill-rule="evenodd" d="M1.0800000429153442,7.680000185966492 C1.0800000429153442,11.856000304222107 4.392000317573547,15.167999625205994 8.584000706672668,15.167999625205994 C12.760000348091125,15.167999625205994 16.088001370429993,11.872000098228455 16.07200062274933,7.711999773979187 C16.07200062274933,3.3759998083114624 12.632000088691711,0.17599999904632568 8.616000294685364,0.17599999904632568 C4.424000382423401,0.17599999904632568 1.0800000429153442,3.4879997968673706 1.0800000429153442,7.680000185966492 L10.871999859809875,13.7920001745224 C10.13599979877472,14.080000281333923 9.368000149726868,14.208000540733337 8.536000370979309,14.224000334739685 C5.304000020027161,14.19200074672699 2.871999979019165,11.888000845909119 2.2960000038146973,9.024000525474548 C1.751999855041504,6.3039997816085815 2.888000011444092,3.583999991416931 5.144000172615051,2.111999988555908 C8.583999752998352,-0.1119999885559082 13.176000714302063,1.4559999704360962 14.616000294685364,5.343999743461609 C15.86400043964386,8.736000418663025 14.199999928474426,12.512000441551208 10.871999859809875,13.7920001745224 L1.0800000429153442,7.680000185966492Z"/>
    <path id="path-2" opacity="1" fill-rule="evenodd" d="M39.25600051879883,7.63199982047081 C39.2400016784668,11.871999591588974 42.52000045776367,15.16800007224083 46.74400329589844,15.16800007224083 C50.93600082397461,15.16800007224083 54.21600341796875,11.904000133275986 54.24800109863281,7.712000221014023 C54.28000259399414,3.5519998967647552 50.93600082397461,0.17599999904632568 46.80800247192383,0.17599999904632568 C42.60000228881836,0.1599999964237213 39.25600051879883,3.4719999730587006 39.25600051879883,7.63199982047081 L49.36800003051758,13.647999614477158 C48.5359992980957,14.031999439001083 47.65599822998047,14.208000034093857 46.66400146484375,14.223999828100204 C43.447998046875,14.191999286413193 41.14400100708008,11.887999385595322 40.503997802734375,9.295999377965927 C39.736000061035156,6.128000110387802 41.28799819946289,2.944000095129013 44.152000427246094,1.6479999721050262 C47.624000549316406,0.08000004291534424 51.6879997253418,1.9359999597072601 52.85599899291992,5.600000232458115 C53.87999725341797,8.831999629735947 52.391998291015625,12.287999957799911 49.36800003051758,13.647999614477158 L39.25600051879883,7.63199982047081Z"/>
    <path id="path-3" opacity="1" fill-rule="evenodd" d="M28.42399999999997,10.159999999999911 C28.519999999999975,10.287999999999913 28.567999999999966,10.367999999999913 28.647999999999968,10.447999999999915 C29.719999999999963,11.791999999999911 30.791999999999963,13.119999999999912 31.86399999999997,14.463999999999919 C31.94399999999997,14.575999999999917 32.03999999999998,14.67199999999992 32.10399999999997,14.783999999999919 C32.199999999999974,14.959999999999923 32.13599999999997,15.119999999999923 31.94399999999997,15.135999999999918 C31.703999999999972,15.151999999999921 31.447999999999965,15.167999999999916 31.207999999999966,15.119999999999914 C31.06399999999997,15.087999999999916 30.919999999999966,14.94399999999991 30.82399999999997,14.815999999999917 C30.151999999999973,13.999999999999913 29.495999999999967,13.167999999999916 28.82399999999997,12.335999999999915 C28.34399999999997,11.727999999999914 27.847999999999967,11.119999999999912 27.367999999999967,10.511999999999919 C27.22399999999997,10.335999999999917 27.079999999999963,10.271999999999919 26.855999999999966,10.271999999999919 C25.75199999999997,10.287999999999924 24.647999999999964,10.271999999999919 23.54399999999997,10.271999999999919 C23.447999999999965,10.271999999999919 23.367999999999967,10.271999999999919 23.27199999999997,10.271999999999919 C22.967999999999975,10.255999999999915 22.903999999999968,10.191999999999918 22.887999999999973,9.887999999999924 C22.87199999999997,9.31199999999992 22.919999999999973,9.263999999999927 23.495999999999977,9.263999999999927 C24.74399999999998,9.263999999999927 26.007999999999974,9.263999999999927 27.25599999999998,9.263999999999927 C27.783999999999978,9.263999999999927 28.295999999999978,9.19999999999993 28.79199999999998,9.055999999999925 C30.167999999999985,8.63999999999992 31.223999999999982,7.583999999999926 31.415999999999976,5.791999999999928 C31.479999999999976,5.199999999999929 31.463999999999977,4.623999999999925 31.319999999999972,4.047999999999931 C30.93599999999998,2.5759999999999317 29.959999999999972,1.6959999999999313 28.50399999999997,1.3279999999999295 C28.087999999999965,1.2159999999999311 27.639999999999972,1.1839999999999329 27.19199999999997,1.1839999999999329 C25.91199999999997,1.1679999999999293 24.647999999999975,1.1839999999999329 23.367999999999974,1.1679999999999293 C23.255999999999975,1.1679999999999293 23.143999999999977,1.1679999999999293 23.03199999999997,1.1199999999999277 C22.83999999999997,1.0399999999999276 22.87199999999997,0.8479999999999294 22.87199999999997,0.6719999999999255 C22.87199999999997,0.4959999999999219 22.82399999999997,0.2879999999999291 23.03199999999997,0.19199999999992545 C23.11199999999997,0.15999999999992726 23.207999999999974,0.15999999999992726 23.287999999999975,0.15999999999992726 C24.71199999999997,0.15999999999992726 26.135999999999978,0.1439999999999236 27.54399999999998,0.15999999999992726 C28.487999999999975,0.17599999999993088 29.399999999999984,0.4159999999999309 30.215999999999976,0.9119999999999256 C31.223999999999982,1.5199999999999279 31.91199999999998,2.3839999999999244 32.247999999999976,3.519999999999928 C32.55199999999997,4.543999999999925 32.56799999999998,5.56799999999993 32.29599999999998,6.591999999999928 C31.815999999999978,8.39999999999993 30.63199999999998,9.503999999999927 28.855999999999977,10.031999999999929 C28.74399999999997,10.079999999999913 28.61599999999998,10.11199999999991 28.42399999999997,10.159999999999911Z"/>
  </defs>
  <g opacity="1">
    <g opacity="1">
      <use xlink:href="#path-1" fill="rgb(11,12,14)" fill-opacity="1"/>
    </g>
    <g opacity="1">
      <use xlink:href="#path-2" fill="rgb(11,12,14)" fill-opacity="1"/>
    </g>
    <g opacity="1">
      <use xlink:href="#path-3" fill="rgb(11,12,14)" fill-opacity="1"/>
    </g>
  </g>
</svg>