<?xml version="1.0" encoding="utf-8"?>
<svg version="1.1" xmlns="http://www.w3.org/2000/svg" xmlns:xlink="http://www.w3.org/1999/xlink" height="32" width="32">
  <defs>
    <rect id="rect-1" opacity="1" x="0" y="0" width="16" height="16"/>
    <path id="path-2" opacity="1" fill-rule="evenodd" d="M4,0 L28,0 C30.207660097976,0 32,1.792339902024 32,4 L32,28 C32,30.207660097976 30.207660097976,32 28,32 L4,32 C1.7923399020240005,32 4.440892098500626e-16,30.207660097976 0,28 L0,4 C0,1.7923399020240005 1.7923399020239992,4.440892098500626e-16 4,0Z"/>
    <path id="path-3" opacity="1" fill-rule="evenodd" d="M13.652542114257812,8.440218925476074 C13.687756538391113,8.242559432983398 13.915488243103027,8.004888534545898 14.16051959991455,8.000001907348633 L16.898300170898438,8.000001907348633 C17.14054298400879,7.999563217163086 17.36842918395996,8.197031021118164 17.406278610229492,8.440218925476074 L17.695045471191406,10.342391967773438 C18.24013900756836,10.559165954589844 18.74034881591797,10.853080749511719 19.192270278930664,11.211956977844238 L20.951499938964844,10.489130973815918 C21.174800872802734,10.397232055664062 21.457014083862305,10.492032051086426 21.582473754882812,10.701087951660156 L22.988784790039062,13.086956024169922 C23.115800857543945,13.299209594726562 23.065170288085938,13.602958679199219 22.876502990722656,13.760871887207031 L21.406005859375,14.98913288116455 C21.461803436279297,15.318645477294922 21.518306732177734,15.651412963867188 21.518306732177734,16.000003814697266 C21.518306732177734,16.348106384277344 21.461650848388672,16.676334381103516 21.406005859375,17.005428314208984 L22.876502990722656,18.233688354492188 C23.065170288085938,18.391620635986328 23.11578369140625,18.695358276367188 22.988784790039062,18.907602310180664 L21.582473754882812,21.293479919433594 C21.458656311035156,21.504436492919922 21.175979614257812,21.601810455322266 20.951499938964844,21.51087188720703 L19.186914443969727,20.782609939575195 C18.735881805419922,21.140262603759766 18.238752365112305,21.435949325561523 17.695045471191406,21.652175903320312 L17.406278610229492,23.55434799194336 C17.3707218170166,23.799461364746094 17.142066955566406,24.000054359436035 16.898300170898438,24 L14.16051959991455,24 C13.91673755645752,24.000054359436035 13.688116073608398,23.799461364746094 13.652542114257812,23.55434799194336 L13.363774299621582,21.652175903320312 C12.820068359375,21.435949325561523 12.322921752929688,21.140262603759766 11.871906280517578,20.782609939575195 L10.107320785522461,21.51087188720703 C9.88282299041748,21.601810455322266 9.600147247314453,21.504417419433594 9.476347923278809,21.293479919433594 L8.070035934448242,18.907602310180664 C7.9430365562438965,18.695358276367188 7.993634223937988,18.391620635986328 8.182318687438965,18.233688354492188 L9.652814865112305,17.005428314208984 C9.597169876098633,16.676334381103516 9.540514945983887,16.348106384277344 9.540514945983887,16.000003814697266 C9.540514945983887,15.651412963867188 9.597015380859375,15.318645477294922 9.652814865112305,14.98913288116455 L8.182318687438965,13.760871887207031 C7.993634223937988,13.602958679199219 7.9430365562438965,13.299209594726562 8.070035934448242,13.086956024169922 L9.476347923278809,10.701087951660156 C9.601789474487305,10.492034912109375 9.884003639221191,10.397232055664062 10.107320785522461,10.489130973815918 L11.86655044555664,11.211956977844238 C12.318471908569336,10.853080749511719 12.81869888305664,10.559165954589844 13.363774299621582,10.342391967773438 L13.652542114257812,8.440218925476074 L16.459827423095703,9.043478965759277 L14.598991394042969,9.043478965759277 L14.336986541748047,10.782608985900879 C14.308992385864258,10.972665786743164 14.16904067993164,11.141135215759277 13.989408493041992,11.20108699798584 C13.352121353149414,11.412223815917969 12.770941734313965,11.75480842590332 12.272939682006836,12.19565200805664 C12.131379127502441,12.322004318237305 11.918498992919922,12.359153747558594 11.743572235107422,12.288043022155762 L10.12870979309082,11.625 L9.176902770996094,13.233694076538086 L10.519048690795898,14.358697891235352 C10.666991233825684,14.480940818786621 10.738207817077637,14.691584587097168 10.695515632629395,14.880435943603516 C10.614477157592773,15.243688583374023 10.567182540893555,15.61723804473877 10.567182540893555,16.000003814697266 C10.567182540893555,16.38275146484375 10.614477157592773,16.75088882446289 10.695515632629395,17.114124298095703 C10.738207817077637,17.302976608276367 10.666974067687988,17.51361846923828 10.519048690795898,17.6358642578125 L9.176902770996094,18.76087188720703 L10.12870979309082,20.37499237060547 L11.743572235107422,19.71194839477539 C11.917558670043945,19.6394100189209 12.130300521850586,19.67435073852539 12.272939682006836,19.798904418945312 C12.770941734313965,20.239757537841797 13.35213851928711,20.582347869873047 13.989408493041992,20.793479919433594 C14.16904067993164,20.85342788696289 14.308975219726562,21.021896362304688 14.336986541748047,21.21194839477539 L14.604331016540527,22.95652198791504 L16.45448875427246,22.95652198791504 L16.721832275390625,21.21194839477539 C16.74984359741211,21.021896362304688 16.88976287841797,20.85342788696289 17.069412231445312,20.793479919433594 C17.706680297851562,20.582347869873047 18.287878036499023,20.239757537841797 18.78588104248047,19.798904418945312 C18.92853546142578,19.67435073852539 19.14124298095703,19.6394100189209 19.31524658203125,19.71194839477539 L20.930110931396484,20.37499237060547 L21.881916046142578,18.76087188720703 L20.539772033691406,17.6358642578125 C20.391845703125,17.51361846923828 20.320594787597656,17.302976608276367 20.363304138183594,17.114124298095703 C20.444324493408203,16.75088882446289 20.49163818359375,16.38275146484375 20.49163818359375,16.000003814697266 C20.49163818359375,15.61723804473877 20.444324493408203,15.243688583374023 20.363304138183594,14.880435943603516 C20.320594787597656,14.691584587097168 20.391845703125,14.480940818786621 20.539772033691406,14.358697891235352 L21.881916046142578,13.233694076538086 L20.930110931396484,11.625 L19.31524658203125,12.288043022155762 C19.140302658081055,12.359153747558594 18.927440643310547,12.322004318237305 18.78588104248047,12.19565200805664 C18.287878036499023,11.75480842590332 17.706680297851562,11.412223815917969 17.069412231445312,11.20108699798584 C16.88976287841797,11.141135215759277 16.74984359741211,10.972665786743164 16.721832275390625,10.782608985900879 L16.459827423095703,9.043478965759277 L15.529409408569336,12.17391300201416 C13.45644760131836,12.17391300201416 11.764961242675781,13.893098831176758 11.764961242675781,16.000003814697266 C11.764961242675781,18.10690689086914 13.45644760131836,19.826087951660156 15.529409408569336,19.826087951660156 C17.602388381958008,19.826087951660156 19.29385757446289,18.106889724731445 19.29385757446289,16.000003814697266 C19.29385757446289,13.893098831176758 17.602388381958008,12.17391300201416 15.529409408569336,12.17391300201416 L18.26719093322754,16.000003814697266 C18.26719093322754,14.45702838897705 17.047544479370117,13.217391014099121 15.529410362243652,13.217391014099121 C14.0112943649292,13.217391014099121 12.791629791259766,14.457046508789062 12.791629791259766,16.000003814697266 C12.791629791259766,17.542959213256836 14.0112943649292,18.782611846923828 15.529410362243652,18.782611846923828 C17.047544479370117,18.782611846923828 18.26719093322754,17.542959213256836 18.26719093322754,16.000003814697266 L13.652542114257812,8.440218925476074Z"/>
  </defs>
  <g transform="translate(8, 8)" opacity="1">
    <g opacity="1">
      <g opacity="0.6973586309523809">
        <use xlink:href="#path-2" fill="rgb(241,234,217)" fill-opacity="1"/>
      </g>
      <g opacity="1">
        <use xlink:href="#path-3" fill="rgb(204,175,116)" fill-opacity="1"/>
        <use xlink:href="#path-3" fill-opacity="0" stroke="rgb(219,235,244)" stroke-opacity="1" stroke-width="0.2" stroke-linecap="butt" stroke-linejoin="miter"/>
      </g>
    </g>
  </g>
</svg>