<?xml version="1.0" encoding="utf-8"?>
<svg version="1.1" xmlns="http://www.w3.org/2000/svg" xmlns:xlink="http://www.w3.org/1999/xlink" height="17.100000723281482" width="16.100000007450944">
  <defs>
    <rect id="rect-1" opacity="1" x="0" y="0" width="16" height="16"/>
    <path id="path-2" opacity="1" fill-rule="evenodd" d="M5.652541629970074,0.4402186492293936 C5.687756530940533,0.2425596186727148 5.915488235652447,0.004888407776491022 6.16051959246397,0 L8.898300163447857,0 C9.140542976558208,-0.00043680689890379654 9.36842917650938,0.19703095348774013 9.406278602778912,0.4402186492293936 L9.695046417415142,2.3423917213290792 C10.240138046443462,2.5591654697269064 10.740347854793072,2.8530802646487814 11.192270271480083,3.21195673139988 L12.951499931514263,2.4891307273715597 C13.174799911677837,2.3972318092197042 13.457014076411724,2.4920318046420675 13.582472793757915,2.70108722837864 L14.988784782588482,5.086956254562722 C15.115800850093365,5.299210301956521 15.06516932696104,5.602959386429177 14.87650202959776,5.760872594436989 L13.406004898250103,6.989133111557351 C13.461804382503033,7.318645707687722 13.518305771052837,7.651412717422829 13.518305771052837,8.000004045090066 C13.518305771052837,8.34810756834446 13.461650840938091,8.676333657822 13.406004898250103,9.0054294982761 L14.87650202959776,10.233689538559304 C15.06516932696104,10.391619912704812 15.11578368395567,10.695359460434304 14.988784782588482,10.907602540573464 L13.582472793757915,13.293480149826394 C13.458656303584576,13.504436723312722 13.175980560481548,13.60180973204075 12.951499931514263,13.510871163925515 L11.186914436519146,12.782610169967995 C10.735881797969341,13.140262834152566 10.238752357661724,13.435949555954323 9.695046417415142,13.652175180038796 L9.406278602778912,15.55434822233616 C9.370721809566021,15.799461595138894 9.14206599444151,16.00005077513157 8.898300163447857,15.999999276718484 L6.16051959246397,15.999999276718484 C5.916737549006939,16.00005077513157 5.68811558932066,15.799461595138894 5.652541629970074,15.55434822233616 L5.363774292171001,13.652175180038796 C4.820067875087261,13.435949555954323 4.322921268641949,13.140262834152566 3.8719060346484184,12.782610169967995 L2.1073207780718803,13.510871163925515 C1.8828228637576103,13.60180973204075 1.6001470014452934,13.50441860350071 1.476347915828228,13.293480149826394 L0.07003559172153473,10.907602540573464 C-0.05696321278810501,10.695359460434304 -0.006365602370351553,10.391619912704812 0.18231865018606186,10.233689538559304 L1.6528149768710136,9.0054294982761 C1.5971696302294731,8.676333657822 1.540514700114727,8.34810756834446 1.540514700114727,8.000004045090066 C1.540514700114727,7.651412717422829 1.5970156118273735,7.318645707687722 1.6528149768710136,6.989133111557351 L0.18231865018606186,5.760872594436989 C-0.006365602370351553,5.602959386429177 -0.05696321278810501,5.299210301956521 0.07003559172153473,5.086956254562722 L1.476347915828228,2.70108722837864 C1.6017895862460136,2.492035142502175 1.8840035125613213,2.3972318092197042 2.1073207780718803,2.4891307273715597 L3.86655043810606,3.21195673139988 C4.3184723779559135,2.8530802646487814 4.818699352443218,2.5591654697269064 5.363774292171001,2.3423917213290792 L5.652541629970074,0.4402186492293936 L8.459827415645123,1.0434793153613668 L6.598992340266705,1.0434793153613668 L6.3369870111346245,2.7826089778750998 C6.308993332087994,2.972666255554543 6.169041149318218,3.1411356845706564 5.989408485591412,3.2010869899600607 C5.352121822535992,3.412224284729348 4.7709422037005424,3.754808417877541 4.272939674556255,4.195652238449441 C4.131379120051861,4.322005025467263 3.9184999391436577,4.359154454788552 3.7435727044939995,4.288043252548562 L2.1287097856402397,3.624999991974221 L1.1769031211733818,5.233695260605202 L2.519048683345318,6.3586981216281515 C2.666991703212261,6.480941526016579 2.7382082864642143,6.691585294327126 2.695515863597393,6.880437127670632 C2.614477626979351,7.243689290603982 2.567182533442974,7.617238751968728 2.567182533442974,8.00000309141575 C2.567182533442974,8.382750741562234 2.614477626979351,8.750890008530007 2.695515863597393,9.114124528488503 C2.7382082864642143,9.302976838669167 2.666974537074566,9.513619653305398 2.519048683345318,9.635863534530984 L1.1769031211733818,10.760872117599831 L2.1287097856402397,12.374992600998269 L3.7435727044939995,11.711949578842507 C3.9175586625933647,11.639410249313698 4.130301468074322,11.674350015243874 4.272939674556255,11.798905603012429 C4.7709422037005424,12.239757768234597 5.352138988673687,12.582349053940163 5.989408485591412,12.793479196152077 C6.169041149318218,12.853427163681374 6.308976165950298,13.021896592697487 6.3369870111346245,13.21194862516819 L6.604331485927105,14.956522218307839 L8.45448874682188,14.956522218307839 L8.72183322161436,13.21194862516819 C8.749844543635845,13.021896592697487 8.889761917293072,12.853427163681374 9.069411270320415,12.793479196152077 C9.706681244075298,12.582349053940163 10.287878029048443,12.239757768234597 10.785880081355572,11.798905603012429 C10.9285354539752,11.674350015243874 11.141243927180767,11.639410249313698 11.315247528254986,11.711949578842507 L12.930109970271587,12.374992600998269 L13.881916992366314,10.760872117599831 L12.53977107256651,9.635863534530984 C12.39184569567442,9.513619653305398 12.320594780147076,9.302976838669167 12.363304130733013,9.114124528488503 C12.444325439631939,8.750890008530007 12.491637222468853,8.382750741562234 12.491637222468853,8.00000309141575 C12.491637222468853,7.617238751968728 12.444325439631939,7.243689290603982 12.363304130733013,6.880437127670632 C12.320594780147076,6.691585294327126 12.39184569567442,6.480941526016579 12.53977107256651,6.3586981216281515 L13.881916992366314,5.233695260605202 L12.930109970271587,3.624999991974221 L11.315247528254986,4.288043252548562 C11.140302650630474,4.359154454788552 10.927440635859966,4.322005025467263 10.785880081355572,4.195652238449441 C10.287878029048443,3.754808417877541 9.706681244075298,3.412224284729348 9.069411270320415,3.2010869899600607 C8.889761917293072,3.1411356845706564 8.749844543635845,2.972666255554543 8.72183322161436,2.7826089778750998 L8.459827415645123,1.0434793153613668 L7.529410354793072,4.173912755569802 C5.456448070704937,4.173912755569802 3.7649614736437798,5.893098107895241 3.7649614736437798,8.00000309141575 C3.7649614736437798,10.10690712126194 5.456448070704937,11.826088182052956 7.529410354793072,11.826088182052956 C9.602389328181744,11.826088182052956 11.293858520686626,10.106889955124245 11.293858520686626,8.00000309141575 C11.293858520686626,5.893098107895241 9.602389328181744,4.173912755569802 7.529410354793072,4.173912755569802 L10.267190925776958,8.000004045090066 C10.267190925776958,6.457028619369851 9.047544471919537,5.217390767654763 7.529410354793072,5.217390767654763 C6.011293403804302,5.217390767654763 4.791629306972027,6.457045785507546 4.791629306972027,8.000004045090066 C4.791629306972027,9.542959443649636 6.011293403804302,10.782611123642312 7.529410354793072,10.782611123642312 C9.047544471919537,10.782611123642312 10.267190925776958,9.542959443649636 10.267190925776958,8.000004045090066 L5.652541629970074,0.4402186492293936Z"/>
  </defs>
  <g transform="translate(0.1000000074509444, 0.10000072328148235)" opacity="1">
    <g opacity="1">
      <g opacity="1">
        <use xlink:href="#path-2" fill="rgb(11,12,14)" fill-opacity="1"/>
        <use xlink:href="#path-2" fill-opacity="0" stroke="rgb(255,255,255)" stroke-opacity="1" stroke-width="0.2" stroke-linecap="butt" stroke-linejoin="miter"/>
      </g>
    </g>
  </g>
</svg>