<?xml version="1.0" encoding="utf-8"?>
<svg version="1.1" xmlns="http://www.w3.org/2000/svg" xmlns:xlink="http://www.w3.org/1999/xlink" height="16" width="16">
  <defs>
    <rect id="rect-1" opacity="1" x="0" y="0" width="16" height="16"/>
    <path id="path-2" opacity="1" fill-rule="evenodd" d="M8.333333015441895,6.333333492279053 L11.359999656677246,6.333333492279053 C11.522666931152344,7.4623332023620605 12.493666648864746,8.333333015441895 13.666666984558105,8.333333015441895 C14.953332901000977,8.333333015441895 16,7.2866668701171875 16,6 C16,4.7133331298828125 14.953332901000977,3.6666667461395264 13.666666984558105,3.6666667461395264 C12.493332862854004,3.6666667461395264 11.522666931152344,4.5376667976379395 11.359999656677246,5.666666507720947 L8.333333015441895,5.666666507720947 L8.333333015441895,0 L7.666666507720947,0 L7.666666507720947,2 L4.639999866485596,2 C4.4773335456848145,0.8709999918937683 3.506333351135254,0 2.3333332538604736,0 C1.0466666221618652,0 0,1.0466666221618652 0,2.3333332538604736 C0,3.619999885559082 1.0466666221618652,4.666666507720947 2.3333332538604736,4.666666507720947 C3.506333351135254,4.666666507720947 4.4773335456848145,3.7956666946411133 4.639999866485596,2.6666667461395264 L7.666666507720947,2.6666667461395264 L7.666666507720947,9.333333015441895 L4.639999866485596,9.333333015441895 C4.4773335456848145,8.204333305358887 3.506333351135254,7.333333492279053 2.3333332538604736,7.333333492279053 C1.0466666221618652,7.333333492279053 0,8.380000114440918 0,9.666666984558105 C0,10.953332901000977 1.0466666221618652,12 2.3333332538604736,12 C3.506333351135254,12 4.4773335456848145,11.128999710083008 4.639999866485596,10 L7.666666507720947,10 L7.666666507720947,16 L8.333333015441895,16 L8.333333015441895,13.666666984558105 L11.359999656677246,13.666666984558105 C11.522666931152344,14.795666694641113 12.493666648864746,15.666666984558105 13.666666984558105,15.666666984558105 C14.953332901000977,15.666666984558105 16,14.619999885559082 16,13.333333015441895 C16,12.046667098999023 14.953332901000977,11 13.666666984558105,11 C12.493332862854004,11 11.522666931152344,11.871000289916992 11.359999656677246,13 L8.333333015441895,13 L8.333333015441895,6.333333492279053 L0.6666666865348816,2.3333332538604736 C0.6666666865348816,3.252333402633667 1.4143333435058594,4 2.3333332538604736,4 C3.252333402633667,4 4,3.252333402633667 4,2.3333332538604736 C4,1.4143333435058594 3.252333402633667,0.6666666865348816 2.3333332538604736,0.6666666865348816 C1.4143333435058594,0.6666666865348816 0.6666666865348816,1.4143333435058594 0.6666666865348816,2.3333332538604736 L13.666666984558105,4.333333492279053 C14.58566665649414,4.333333492279053 15.333333015441895,5.081000328063965 15.333333015441895,6 C15.333333015441895,6.919000148773193 14.58566665649414,7.6666669845581055 13.666666984558105,7.6666669845581055 C12.747666358947754,7.6666669845581055 12,6.919000148773193 12,6 C12,5.081000328063965 12.747666358947754,4.333333492279053 13.666666984558105,4.333333492279053 L2.3333332538604736,11.333333015441895 C1.4143333435058594,11.333333015441895 0.6666666865348816,10.58566665649414 0.6666666865348816,9.666666984558105 C0.6666666865348816,8.747666358947754 1.4143333435058594,8 2.3333332538604736,8 C3.252333402633667,8 4,8.747666358947754 4,9.666666984558105 C4,10.58566665649414 3.252333402633667,11.333333015441895 2.3333332538604736,11.333333015441895 L15.333333015441895,13.333333969116211 C15.333333015441895,12.41433334350586 14.58566665649414,11.666666984558105 13.666666984558105,11.666666984558105 C12.747666358947754,11.666666984558105 12,12.41433334350586 12,13.333333969116211 C12,14.252333641052246 12.747666358947754,15 13.666666984558105,15 C14.58566665649414,15 15.333333015441895,14.252333641052246 15.333333015441895,13.333333969116211 L8.333333015441895,6.333333492279053Z"/>
  </defs>
  <g opacity="1">
    <g opacity="1">
      <g opacity="1">
        <use xlink:href="#path-2" fill="rgb(0,0,0)" fill-opacity="1"/>
      </g>
    </g>
  </g>
</svg>