<?xml version="1.0" encoding="utf-8"?>
<svg version="1.1" xmlns="http://www.w3.org/2000/svg" xmlns:xlink="http://www.w3.org/1999/xlink" height="32" width="32">
  <defs>
    <rect id="rect-1" opacity="1" x="0" y="0" width="16" height="16"/>
    <path id="path-2" opacity="1" fill-rule="evenodd" d="M4,0 L28,0 C30.207660097976,0 32,1.792339902024 32,4 L32,28 C32,30.207660097976 30.207660097976,32 28,32 L4,32 C1.7923399020240005,32 4.440892098500626e-16,30.207660097976 0,28 L0,4 C0,1.7923399020240005 1.7923399020239992,4.440892098500626e-16 4,0Z"/>
    <path id="path-3" opacity="1" fill-rule="evenodd" d="M16.333332061767578,14.333333969116211 L19.360000610351562,14.333333969116211 C19.522666931152344,15.462333679199219 20.493667602539062,16.333332061767578 21.666667938232422,16.333332061767578 C22.953332901000977,16.333332061767578 24,15.286666870117188 24,14 C24,12.713333129882812 22.953332901000977,11.666666984558105 21.666667938232422,11.666666984558105 C20.493331909179688,11.666666984558105 19.522666931152344,12.537666320800781 19.360000610351562,13.666666030883789 L16.333332061767578,13.666666030883789 L16.333332061767578,8 L15.666666030883789,8 L15.666666030883789,10 L12.639999389648438,10 C12.477333068847656,8.871000289916992 11.506333351135254,8 10.333333015441895,8 C9.046667098999023,8 8,9.046667098999023 8,10.333333015441895 C8,11.619999885559082 9.046667098999023,12.666666030883789 10.333333015441895,12.666666030883789 C11.506333351135254,12.666666030883789 12.477333068847656,11.795666694641113 12.639999389648438,10.666666984558105 L15.666666030883789,10.666666984558105 L15.666666030883789,17.333332061767578 L12.639999389648438,17.333332061767578 C12.477333068847656,16.204334259033203 11.506333351135254,15.333333969116211 10.333333015441895,15.333333969116211 C9.046667098999023,15.333333969116211 8,16.380001068115234 8,17.666667938232422 C8,18.953332901000977 9.046667098999023,20 10.333333015441895,20 C11.506333351135254,20 12.477333068847656,19.128999710083008 12.639999389648438,18 L15.666666030883789,18 L15.666666030883789,24 L16.333332061767578,24 L16.333332061767578,21.666667938232422 L19.360000610351562,21.666667938232422 C19.522666931152344,22.795665740966797 20.493667602539062,23.666667938232422 21.666667938232422,23.666667938232422 C22.953332901000977,23.666667938232422 24,22.619998931884766 24,21.333332061767578 C24,20.046667098999023 22.953332901000977,19 21.666667938232422,19 C20.493331909179688,19 19.522666931152344,19.871000289916992 19.360000610351562,21 L16.333332061767578,21 L16.333332061767578,14.333333969116211 L8.666666984558105,10.333333969116211 C8.666666984558105,11.252333641052246 9.41433334350586,12 10.333333969116211,12 C11.252333641052246,12 12,11.252333641052246 12,10.333333969116211 C12,9.41433334350586 11.252333641052246,8.666666984558105 10.333333969116211,8.666666984558105 C9.41433334350586,8.666666984558105 8.666666984558105,9.41433334350586 8.666666984558105,10.333333969116211 L21.66666603088379,12.333333015441895 C22.58566665649414,12.333333015441895 23.33333396911621,13.080999374389648 23.33333396911621,14 C23.33333396911621,14.918999671936035 22.58566665649414,15.666666030883789 21.66666603088379,15.666666030883789 C20.74766731262207,15.666666030883789 20,14.918999671936035 20,14 C20,13.080999374389648 20.74766731262207,12.333333015441895 21.66666603088379,12.333333015441895 L10.333333969116211,19.33333396911621 C9.41433334350586,19.33333396911621 8.666666984558105,18.58566665649414 8.666666984558105,17.66666603088379 C8.666666984558105,16.74766731262207 9.41433334350586,16 10.333333969116211,16 C11.252333641052246,16 12,16.74766731262207 12,17.66666603088379 C12,18.58566665649414 11.252333641052246,19.33333396911621 10.333333969116211,19.33333396911621 L23.33333396911621,21.333332061767578 C23.33333396911621,20.41433334350586 22.58566665649414,19.66666603088379 21.66666603088379,19.66666603088379 C20.74766731262207,19.66666603088379 20,20.41433334350586 20,21.333332061767578 C20,22.25233268737793 20.74766731262207,23 21.66666603088379,23 C22.58566665649414,23 23.33333396911621,22.25233268737793 23.33333396911621,21.333332061767578 L16.333332061767578,14.333333969116211Z"/>
  </defs>
  <g transform="translate(8, 8)" opacity="1">
    <g opacity="1">
      <g opacity="0.6973586309523809">
        <use xlink:href="#path-2" fill="rgb(241,234,217)" fill-opacity="1"/>
      </g>
      <g opacity="1">
        <use xlink:href="#path-3" fill="rgb(204,175,116)" fill-opacity="1"/>
      </g>
    </g>
  </g>
</svg>