<?xml version="1.0" encoding="utf-8"?>
<svg version="1.1" xmlns="http://www.w3.org/2000/svg" xmlns:xlink="http://www.w3.org/1999/xlink" height="16" width="16">
  <defs>
    <rect id="rect-1" opacity="1" x="0" y="0" width="16" height="16"/>
    <path id="path-2" opacity="1" fill-rule="evenodd" d="M4.214633941650391,10.965853691101074 L5.0731706619262695,9.834146499633789 L13.151219367980957,9.834146499633789 C13.346341133117676,9.834146499633789 13.502439498901367,9.717073440551758 13.541463851928711,9.560976028442383 L15.960975646972656,2.5756096839904785 C16.039024353027344,2.341463327407837 15.843902587890625,2.0682926177978516 15.570732116699219,2.0682926177978516 L3.317073106765747,2.0682926177978516 L2.848780393600464,0.3121951222419739 C2.80975604057312,0.1170731708407402 2.653658628463745,0 2.4585366249084473,0 L0.39024388790130615,0 C0.15609756112098694,0 0,0.15609756112098694 0,0.39024388790130615 C0,0.6243902444839478 0.15609756112098694,0.7804877758026123 0.39024388790130615,0.7804877758026123 L2.146341562271118,0.7804877758026123 L4.448780536651611,9.365853309631348 L3.5902438163757324,10.497560501098633 C3.004878044128418,11.317072868347168 3.5512194633483887,12.448780059814453 4.565853595733643,12.448780059814453 L13.268292427062988,12.448780059814453 C13.463414192199707,12.448780059814453 13.658536911010742,12.292682647705078 13.658536911010742,12.058536529541016 C13.658536911010742,11.863414764404297 13.463414192199707,11.668292999267578 13.268292427062988,11.668292999267578 L4.565853595733643,11.668292999267578 C4.214633941650391,11.668292999267578 4.019512176513672,11.278048515319824 4.214633941650391,10.965853691101074 L5.190243721008301,9.053658485412598 L3.512195110321045,2.848780393600464 L15.024391174316406,2.848780393600464 L12.878047943115234,9.053658485412598 L5.190243721008301,9.053658485412598 L4.214633941650391,10.965853691101074Z"/>
    <path id="path-3" opacity="1" fill-rule="evenodd" d="M6.439023971557617,14.126829147338867 C6.439023971557617,13.346342086791992 5.775609970092773,12.721951484680176 4.995121955871582,12.721951484680176 C4.214633941650391,12.721951484680176 3.5902438163757324,13.346342086791992 3.5902438163757324,14.126829147338867 C3.5902438163757324,14.907317161560059 4.214633941650391,15.570732116699219 4.995121955871582,15.570732116699219 C5.775609970092773,15.570732116699219 6.439023971557617,14.907317161560059 6.439023971557617,14.126829147338867 L4.370731830596924,14.126830101013184 C4.370731830596924,13.775609970092773 4.643902778625488,13.502439498901367 4.995121955871582,13.502439498901367 C5.346341609954834,13.502439498901367 5.658536911010742,13.775609970092773 5.658536911010742,14.126830101013184 C5.658536911010742,14.478049278259277 5.346341609954834,14.790244102478027 4.995121955871582,14.790244102478027 C4.643902778625488,14.790244102478027 4.370731830596924,14.478049278259277 4.370731830596924,14.126830101013184 L6.439023971557617,14.126829147338867Z"/>
    <path id="path-4" opacity="1" fill-rule="evenodd" d="M13.775609970092773,14.126829147338867 C13.775609970092773,13.346342086791992 13.112195014953613,12.721951484680176 12.331707000732422,12.721951484680176 C11.551219940185547,12.721951484680176 10.92682933807373,13.346342086791992 10.92682933807373,14.126829147338867 C10.92682933807373,14.907317161560059 11.551219940185547,15.570732116699219 12.331707000732422,15.570732116699219 C13.112195014953613,15.570732116699219 13.775609970092773,14.907317161560059 13.775609970092773,14.126829147338867 L11.707317352294922,14.126830101013184 C11.707317352294922,13.775609970092773 11.980487823486328,13.502439498901367 12.331707954406738,13.502439498901367 C12.682927131652832,13.502439498901367 12.995121955871582,13.775609970092773 12.995121955871582,14.126830101013184 C12.995121955871582,14.478049278259277 12.682927131652832,14.790244102478027 12.331707954406738,14.790244102478027 C11.980487823486328,14.790244102478027 11.707317352294922,14.478049278259277 11.707317352294922,14.126830101013184 L13.775609970092773,14.126829147338867Z"/>
  </defs>
  <g opacity="1">
    <g opacity="1">
      <g opacity="1">
        <use xlink:href="#path-2" fill="rgb(11,12,14)" fill-opacity="1"/>
      </g>
      <g opacity="1">
        <use xlink:href="#path-3" fill="rgb(11,12,14)" fill-opacity="1"/>
      </g>
      <g opacity="1">
        <use xlink:href="#path-4" fill="rgb(11,12,14)" fill-opacity="1"/>
      </g>
    </g>
  </g>
</svg>