<?xml version="1.0" encoding="utf-8"?>
<svg version="1.1" xmlns="http://www.w3.org/2000/svg" xmlns:xlink="http://www.w3.org/1999/xlink" height="32" width="32">
  <defs>
    <rect id="rect-1" opacity="1" x="0" y="0" width="16" height="16"/>
    <path id="path-2" opacity="1" fill-rule="evenodd" d="M4,0 L28,0 C30.207660097976,0 32,1.792339902024 32,4 L32,28 C32,30.207660097976 30.207660097976,32 28,32 L4,32 C1.7923399020240005,32 4.440892098500626e-16,30.207660097976 0,28 L0,4 C0,1.7923399020240005 1.7923399020239992,4.440892098500626e-16 4,0Z"/>
    <path id="path-3" opacity="1" fill-rule="evenodd" d="M12.21463394165039,18.96585464477539 L13.07317066192627,17.83414649963379 L21.15121841430664,17.83414649963379 C21.34634017944336,17.83414649963379 21.502439498901367,17.717073440551758 21.54146385192871,17.560976028442383 L23.960975646972656,10.57560920715332 C24.039024353027344,10.341463088989258 23.843902587890625,10.068292617797852 23.57073211669922,10.068292617797852 L11.317072868347168,10.068292617797852 L10.848780632019043,8.31219482421875 C10.8097562789917,8.117073059082031 10.653658866882324,8 10.458536148071289,8 L8.390243530273438,8 C8.156097412109375,8 8,8.156097412109375 8,8.390243530273438 C8,8.624390602111816 8.156097412109375,8.780488014221191 8.390243530273438,8.780488014221191 L10.146341323852539,8.780488014221191 L12.448780059814453,17.36585235595703 L11.59024429321289,18.497560501098633 C11.004878044128418,19.317073822021484 11.551219940185547,20.448780059814453 12.565853118896484,20.448780059814453 L21.268291473388672,20.448780059814453 C21.46341323852539,20.448780059814453 21.658536911010742,20.292682647705078 21.658536911010742,20.058536529541016 C21.658536911010742,19.863414764404297 21.46341323852539,19.668292999267578 21.268291473388672,19.668292999267578 L12.565853118896484,19.668292999267578 C12.21463394165039,19.668292999267578 12.019512176513672,19.27804946899414 12.21463394165039,18.96585464477539 L13.190244674682617,17.05365753173828 L11.512195587158203,10.848780632019043 L23.024391174316406,10.848780632019043 L20.878047943115234,17.05365753173828 L13.190244674682617,17.05365753173828 L12.21463394165039,18.96585464477539Z"/>
    <path id="path-4" opacity="1" fill-rule="evenodd" d="M14.439024925231934,22.126829147338867 C14.439024925231934,21.34634017944336 13.775609970092773,20.72195053100586 12.995121955871582,20.72195053100586 C12.214634895324707,20.72195053100586 11.59024429321289,21.34634017944336 11.59024429321289,22.126829147338867 C11.59024429321289,22.907316207885742 12.214634895324707,23.570730209350586 12.995121955871582,23.570730209350586 C13.775609970092773,23.570730209350586 14.439024925231934,22.907316207885742 14.439024925231934,22.126829147338867 L12.370731353759766,22.126829147338867 C12.370731353759766,21.775609970092773 12.643901824951172,21.502439498901367 12.995121955871582,21.502439498901367 C13.346341133117676,21.502439498901367 13.658535957336426,21.775609970092773 13.658535957336426,22.126829147338867 C13.658535957336426,22.478050231933594 13.346341133117676,22.790245056152344 12.995121955871582,22.790245056152344 C12.643901824951172,22.790245056152344 12.370731353759766,22.478050231933594 12.370731353759766,22.126829147338867 L14.439024925231934,22.126829147338867Z"/>
    <path id="path-5" opacity="1" fill-rule="evenodd" d="M21.77560806274414,22.126829147338867 C21.77560806274414,21.34634017944336 21.112194061279297,20.72195053100586 20.331707000732422,20.72195053100586 C19.551218032836914,20.72195053100586 18.926828384399414,21.34634017944336 18.926828384399414,22.126829147338867 C18.926828384399414,22.907316207885742 19.551218032836914,23.570730209350586 20.331707000732422,23.570730209350586 C21.112194061279297,23.570730209350586 21.77560806274414,22.907316207885742 21.77560806274414,22.126829147338867 L19.707317352294922,22.126829147338867 C19.707317352294922,21.775609970092773 19.980487823486328,21.502439498901367 20.331707000732422,21.502439498901367 C20.682926177978516,21.502439498901367 20.9951229095459,21.775609970092773 20.9951229095459,22.126829147338867 C20.9951229095459,22.478050231933594 20.682926177978516,22.790245056152344 20.331707000732422,22.790245056152344 C19.980487823486328,22.790245056152344 19.707317352294922,22.478050231933594 19.707317352294922,22.126829147338867 L21.77560806274414,22.126829147338867Z"/>
  </defs>
  <g transform="translate(8, 8)" opacity="1">
    <g opacity="1">
      <g opacity="0.6973586309523809">
        <use xlink:href="#path-2" fill="rgb(241,234,217)" fill-opacity="1"/>
      </g>
      <g opacity="1">
        <use xlink:href="#path-3" fill="rgb(204,175,116)" fill-opacity="1"/>
      </g>
      <g opacity="1">
        <use xlink:href="#path-4" fill="rgb(204,175,116)" fill-opacity="1"/>
      </g>
      <g opacity="1">
        <use xlink:href="#path-5" fill="rgb(204,175,116)" fill-opacity="1"/>
      </g>
    </g>
  </g>
</svg>